<svg width="32" height="32" viewBox="0 0 32 32" fill="none" xmlns="http://www.w3.org/2000/svg">
<path fill-rule="evenodd" clip-rule="evenodd" d="M16 30C23.732 30 30 23.732 30 16C30 8.26801 23.732 2 16 2C8.26801 2 2 8.26801 2 16C2 23.732 8.26801 30 16 30ZM17 10C17 9.44771 16.5523 9 16 9C15.4477 9 15 9.44771 15 10V15H10C9.44771 15 9 15.4477 9 16C9 16.5523 9.44771 17 10 17H15V22C15 22.5523 15.4477 23 16 23C16.5523 23 17 22.5523 17 22V17H22C22.5523 17 23 16.5523 23 16C23 15.4477 22.5523 15 22 15H17V10Z" fill="#007AFF"/>
</svg>
