<svg width="24" height="24" viewBox="0 0 24 24" fill="none" xmlns="http://www.w3.org/2000/svg">
<path fill-rule="evenodd" clip-rule="evenodd" d="M12 23C18.0751 23 23 18.0751 23 12C23 5.92487 18.0751 1 12 1C5.92487 1 1 5.92487 1 12C1 18.0751 5.92487 23 12 23ZM12.9 7C12.9 6.50294 12.4971 6.1 12 6.1C11.5029 6.1 11.1 6.50294 11.1 7V11.1H7C6.50294 11.1 6.1 11.5029 6.1 12C6.1 12.4971 6.50294 12.9 7 12.9H11.1V17C11.1 17.4971 11.5029 17.9 12 17.9C12.4971 17.9 12.9 17.4971 12.9 17V12.9H17C17.4971 12.9 17.9 12.4971 17.9 12C17.9 11.5029 17.4971 11.1 17 11.1H12.9V7Z" fill="#007AFF"/>
</svg>
