<svg width="32" height="32" viewBox="0 0 32 32" fill="none" xmlns="http://www.w3.org/2000/svg">
<path fill-rule="evenodd" clip-rule="evenodd" d="M16 30C23.732 30 30 23.732 30 16C30 8.26801 23.732 2 16 2C8.26801 2 2 8.26801 2 16C2 23.732 8.26801 30 16 30ZM16.6498 9.37729C16.48 9.20016 16.2453 9.1 16 9.1C15.7547 9.1 15.52 9.20016 15.3502 9.37729L10.3502 14.5947C10.0063 14.9535 10.0184 15.5233 10.3773 15.8672C10.7362 16.2111 11.3059 16.199 11.6498 15.8401L15.1 12.2399V22C15.1 22.4971 15.5029 22.9 16 22.9C16.4971 22.9 16.9 22.4971 16.9 22V12.2399L20.3502 15.8401C20.6941 16.199 21.2638 16.2111 21.6227 15.8672C21.9816 15.5233 21.9937 14.9535 21.6498 14.5947L16.6498 9.37729Z" fill="#007AFF"/>
</svg>
