<svg width="20" height="20" viewBox="0 0 20 20" fill="none" xmlns="http://www.w3.org/2000/svg">
<path fill-rule="evenodd" clip-rule="evenodd" d="M10 19C14.9706 19 19 14.9706 19 10C19 5.02944 14.9706 1 10 1C5.02944 1 1 5.02944 1 10C1 14.9706 5.02944 19 10 19ZM10.75 14C10.75 14.4142 10.4142 14.75 10 14.75C9.58579 14.75 9.25 14.4142 9.25 14V7.81066L7.03033 10.0303C6.73744 10.3232 6.26256 10.3232 5.96967 10.0303C5.67678 9.73744 5.67678 9.26256 5.96967 8.96967L9.46967 5.46967C9.76256 5.17678 10.2374 5.17678 10.5303 5.46967L14.0303 8.96967C14.3232 9.26256 14.3232 9.73744 14.0303 10.0303C13.7374 10.3232 13.2626 10.3232 12.9697 10.0303L10.75 7.81066V14Z" fill="#007AFF"/>
</svg>
