<svg width="20" height="20" viewBox="0 0 20 20" fill="none" xmlns="http://www.w3.org/2000/svg">
<path fill-rule="evenodd" clip-rule="evenodd" d="M10 19C14.9706 19 19 14.9706 19 10C19 5.02944 14.9706 1 10 1C5.02944 1 1 5.02944 1 10C1 14.9706 5.02944 19 10 19ZM10.75 6C10.75 5.58579 10.4142 5.25 10 5.25C9.58579 5.25 9.25 5.58579 9.25 6V12.1893L7.03033 9.96967C6.73744 9.67678 6.26256 9.67678 5.96967 9.96967C5.67678 10.2626 5.67678 10.7374 5.96967 11.0303L9.46967 14.5303C9.76256 14.8232 10.2374 14.8232 10.5303 14.5303L14.0303 11.0303C14.3232 10.7374 14.3232 10.2626 14.0303 9.96967C13.7374 9.67678 13.2626 9.67678 12.9697 9.96967L10.75 12.1893V6Z" fill="#007AFF"/>
</svg>
