<svg width="32" height="32" viewBox="0 0 32 32" fill="none" xmlns="http://www.w3.org/2000/svg">
<path fill-rule="evenodd" clip-rule="evenodd" d="M30 16C30 23.732 23.732 30 16 30C8.26801 30 2 23.732 2 16C2 8.26801 8.26801 2 16 2C23.732 2 30 8.26801 30 16ZM16.6498 22.6227C16.48 22.7998 16.2453 22.9 16 22.9C15.7547 22.9 15.52 22.7998 15.3502 22.6227L10.3502 17.4053C10.0063 17.0465 10.0184 16.4767 10.3773 16.1328C10.7361 15.7889 11.3059 15.801 11.6498 16.1599L15.1 19.7601V10C15.1 9.50294 15.5029 9.1 16 9.1C16.497 9.1 16.9 9.50294 16.9 10V19.7601L20.3502 16.1599C20.6941 15.801 21.2638 15.7889 21.6227 16.1328C21.9816 16.4767 21.9937 17.0465 21.6498 17.4053L16.6498 22.6227Z" fill="#007AFF"/>
</svg>
