<svg xmlns="http://www.w3.org/2000/svg" fill="none" viewBox="0 0 24 24"><path fill="currentColor" fill-rule="evenodd" d="M17.365 5.544c-1.992-1.962-5.267-1.962-7.26 0l-4.598 4.53a.9.9 0 1 1-1.263-1.282l4.598-4.53c2.694-2.653 7.093-2.653 9.786 0a6.58 6.58 0 0 1 0 9.424l-6.313 6.218c-2.042 2.012-5.376 2.012-7.418 0l.631-.64-.631.64a5 5 0 0 1 0-7.162l6.341-6.247a3.74 3.74 0 0 1 5.064-.145 3.54 3.54 0 0 1 .071 5.288l-5.291 4.887a.9.9 0 0 1-1.222-1.322l5.292-4.887a1.74 1.74 0 0 0-.036-2.612 1.94 1.94 0 0 0-2.615.074L6.16 14.025a3.2 3.2 0 0 0 0 4.597c1.341 1.322 3.55 1.322 4.892 0l6.313-6.219a4.78 4.78 0 0 0 0-6.859" clip-rule="evenodd"/></svg>