<svg xmlns="http://www.w3.org/2000/svg" fill="none" viewBox="0 0 28 28"><path fill="currentColor" fill-rule="evenodd" d="M13.819 2.485h.295c.73-.001 1.322-.002 1.83.167a3.2 3.2 0 0 1 2.02 1.965c.12.338.16.713.172 1.132h4.81a.99.99 0 1 1 0 1.979H4.986a.99.99 0 0 1 0-1.979h4.81c.012-.42.052-.794.17-1.132a3.2 3.2 0 0 1 2.02-1.965c.51-.169 1.102-.168 1.832-.167m-2.041 3.264h4.377c-.009-.277-.026-.388-.056-.474a1.22 1.22 0 0 0-.777-.745c-.163-.054-.4-.067-1.356-.067-.955 0-1.193.013-1.356.067a1.22 1.22 0 0 0-.776.745c-.03.086-.047.197-.056.474M6.549 9.021a.99.99 0 0 1 1.104.86l1.09 8.81c.147 1.19.25 2 .396 2.613.142.59.304.891.505 1.105q.165.177.37.317c.248.173.586.296 1.219.363.651.07 1.499.07 2.733.07s2.082 0 2.734-.07c.632-.067.97-.19 1.22-.363q.202-.14.369-.317c.2-.214.362-.514.504-1.105.147-.613.25-1.424.396-2.614l1.09-8.809a.99.99 0 1 1 1.964.243l-1.097 8.866c-.138 1.12-.253 2.041-.429 2.776-.185.77-.46 1.44-.989 2a4.3 4.3 0 0 1-.68.586c-.63.437-1.338.62-2.139.704-.768.082-1.722.082-2.888.082h-.11c-1.166 0-2.12 0-2.888-.082-.8-.085-1.508-.267-2.138-.704a4.3 4.3 0 0 1-.68-.586c-.529-.56-.805-1.23-.99-2-.176-.735-.29-1.657-.429-2.776L5.69 10.124a.99.99 0 0 1 .86-1.103" clip-rule="evenodd"/></svg>