<svg xmlns="http://www.w3.org/2000/svg" fill="none" viewBox="0 0 28 28"><path fill="currentColor" fill-rule="evenodd" d="M13.957 3.1h.086c1.789 0 3.19 0 4.313.097 1.143.1 2.083.305 2.923.767a7 7 0 0 1 2.757 2.757c.462.84.667 1.78.766 2.923.098 1.123.098 2.524.098 4.313v.086c0 1.789 0 3.19-.098 4.313-.099 1.143-.304 2.083-.766 2.923a7 7 0 0 1-2.757 2.757c-.84.462-1.78.667-2.923.766-1.123.098-2.524.098-4.313.098h-.086c-1.789 0-3.19 0-4.313-.098-1.143-.099-2.083-.304-2.923-.766a7 7 0 0 1-2.757-2.757c-.462-.84-.667-1.78-.767-2.923-.097-1.123-.097-2.524-.097-4.313v-.086c0-1.789 0-3.19.097-4.313.1-1.143.305-2.083.767-2.923a7 7 0 0 1 2.757-2.757c.84-.462 1.78-.667 2.923-.767 1.123-.097 2.524-.097 4.313-.097M9.8 4.99c-1.025.09-1.683.26-2.212.552a5.2 5.2 0 0 0-2.046 2.046c-.291.53-.462 1.187-.551 2.212C4.9 10.836 4.9 12.159 4.9 14s0 3.164.09 4.2c.09 1.025.26 1.683.552 2.212a5.2 5.2 0 0 0 2.046 2.046c.53.291 1.187.462 2.212.551 1.036.09 2.359.091 4.2.091s3.164 0 4.2-.09c1.025-.09 1.683-.26 2.212-.552a5.2 5.2 0 0 0 2.046-2.046c.291-.53.462-1.187.551-2.212.09-1.036.091-2.359.091-4.2s0-3.164-.09-4.2c-.09-1.025-.26-1.683-.552-2.212a5.2 5.2 0 0 0-2.046-2.046c-.53-.291-1.187-.462-2.212-.551C17.164 4.9 15.841 4.9 14 4.9s-3.164 0-4.2.09m.416 2.023h.073c.406 0 .769 0 1.07.027.32.03.658.095.98.282.351.202.642.493.844.843.186.322.252.66.281.982.028.3.028.663.028 1.069v.073c0 .406 0 .769-.028 1.07-.029.32-.095.658-.281.98a2.3 2.3 0 0 1-.843.844c-.323.186-.66.252-.982.281-.3.028-.663.028-1.07.028h-.072c-.406 0-.769 0-1.07-.028-.321-.029-.659-.095-.981-.281a2.3 2.3 0 0 1-.843-.843c-.187-.323-.253-.66-.282-.982-.027-.3-.027-.663-.027-1.07v-.072c0-.406 0-.77.027-1.07.03-.321.095-.659.282-.981.202-.35.493-.641.843-.843.322-.187.66-.253.982-.282.3-.027.663-.027 1.069-.027M9.065 8.881a.5.5 0 0 0-.184.184c-.003.004-.03.05-.048.244-.02.21-.02.49-.02.943 0 .454 0 .734.02.944.017.193.045.239.047.244q.069.116.185.184c.004.003.05.03.244.048.21.019.49.02.943.02.454 0 .734-.001.944-.02.193-.018.239-.045.244-.048a.5.5 0 0 0 .184-.184c.003-.005.03-.051.048-.244.019-.21.02-.49.02-.944s-.001-.734-.02-.943c-.018-.193-.045-.24-.048-.244a.5.5 0 0 0-.184-.184c-.005-.003-.051-.03-.244-.048-.21-.02-.49-.02-.944-.02s-.734 0-.943.02c-.193.017-.24.045-.244.048m8.646-1.868h.073c.406 0 .77 0 1.07.027.321.03.659.095.981.282.35.202.641.493.843.843.187.322.253.66.282.982.027.3.027.663.027 1.069v.073c0 .406 0 .769-.027 1.07-.03.32-.095.658-.282.98a2.3 2.3 0 0 1-.843.844c-.323.186-.66.252-.982.281-.3.028-.663.028-1.069.028h-.073c-.406 0-.769 0-1.07-.028-.32-.029-.658-.095-.98-.281a2.3 2.3 0 0 1-.844-.843c-.186-.323-.252-.66-.281-.982-.028-.3-.028-.663-.028-1.07v-.072c0-.406 0-.77.028-1.07.029-.321.095-.659.281-.981.202-.35.493-.641.843-.843.323-.187.66-.253.982-.282.3-.027.663-.027 1.07-.027m-1.15 1.868a.5.5 0 0 0-.185.184c-.003.004-.03.05-.048.244-.019.21-.02.49-.02.943 0 .454.001.734.02.944.018.193.045.239.048.244.044.076.108.14.184.184.005.003.051.03.244.048.21.019.49.02.944.02s.734-.001.943-.02c.193-.018.24-.045.244-.048a.5.5 0 0 0 .184-.184c.003-.005.03-.051.048-.244.02-.21.02-.49.02-.944s0-.734-.02-.943c-.017-.193-.045-.24-.047-.244a.5.5 0 0 0-.185-.184c-.004-.003-.05-.03-.244-.048-.21-.02-.49-.02-.943-.02-.454 0-.734 0-.944.02-.193.017-.24.045-.244.048m-6.345 5.627h.073c.406 0 .769 0 1.07.028.32.029.658.095.98.281.351.202.642.493.844.843.186.323.252.66.281.982.028.3.028.663.028 1.07v.072c0 .406 0 .77-.028 1.07-.029.321-.095.659-.281.981-.202.35-.493.641-.843.843-.323.187-.66.253-.982.282-.3.027-.663.027-1.07.027h-.072c-.406 0-.769 0-1.07-.027-.321-.03-.659-.095-.981-.282a2.3 2.3 0 0 1-.843-.843c-.187-.323-.253-.66-.282-.982-.027-.3-.027-.663-.027-1.069v-.073c0-.406 0-.769.027-1.07.03-.32.095-.658.282-.98.202-.351.493-.642.843-.844.322-.186.66-.252.982-.281.3-.028.663-.028 1.069-.028m-1.151 1.868a.5.5 0 0 0-.184.184c-.003.005-.03.051-.048.244-.02.21-.02.49-.02.944s0 .734.02.943c.017.193.045.24.047.244q.069.117.185.184c.004.003.05.03.244.048.21.02.49.02.943.02.454 0 .734 0 .944-.02.193-.017.239-.045.244-.047a.5.5 0 0 0 .184-.185c.003-.004.03-.05.048-.244.019-.21.02-.49.02-.943 0-.454-.001-.734-.02-.944-.018-.193-.045-.239-.048-.244a.5.5 0 0 0-.184-.184c-.005-.003-.051-.03-.244-.048-.21-.019-.49-.02-.944-.02s-.734.001-.943.02c-.193.018-.24.045-.244.048m8.646-1.868h.073c.406 0 .77 0 1.07.028.321.029.659.095.981.281.35.202.641.493.843.843.187.323.253.66.282.982.027.3.027.663.027 1.07v.072c0 .406 0 .77-.027 1.07-.03.321-.095.659-.282.981-.202.35-.493.641-.843.843-.323.187-.66.253-.982.282-.3.027-.663.027-1.069.027h-.073c-.406 0-.769 0-1.07-.027-.32-.03-.658-.095-.98-.282a2.3 2.3 0 0 1-.844-.843c-.186-.323-.252-.66-.281-.982-.028-.3-.028-.663-.028-1.069v-.073c0-.406 0-.769.028-1.07.029-.32.095-.658.281-.98.202-.351.493-.642.843-.844.323-.186.66-.252.982-.281.3-.028.663-.028 1.07-.028m-1.15 1.868a.5.5 0 0 0-.185.184c-.003.005-.03.051-.048.244-.019.21-.02.49-.02.944s.001.734.02.943c.018.193.045.24.048.244a.5.5 0 0 0 .184.184c.005.003.051.03.244.048.21.02.49.02.944.02s.734 0 .943-.02c.193-.017.24-.045.244-.047a.5.5 0 0 0 .184-.185c.003-.004.03-.05.048-.244.02-.21.02-.49.02-.943 0-.454 0-.734-.02-.944-.017-.193-.045-.239-.047-.244a.5.5 0 0 0-.185-.184c-.004-.003-.05-.03-.244-.048-.21-.019-.49-.02-.943-.02-.454 0-.734.001-.944.02-.193.018-.24.045-.244.048" clip-rule="evenodd"/></svg>