<svg xmlns="http://www.w3.org/2000/svg" fill="none" viewBox="0 0 24 24"><path fill="currentColor" fill-rule="evenodd" d="M11.957 2.1h.086c1.606 0 2.87 0 3.885.088 1.035.09 1.895.277 2.666.7a6.4 6.4 0 0 1 2.517 2.518c.424.771.611 1.631.7 2.666.089 1.014.089 2.279.089 3.885v.086c0 1.606 0 2.87-.088 3.885-.09 1.035-.277 1.895-.7 2.666a6.4 6.4 0 0 1-2.517 2.517c-.772.424-1.632.611-2.667.7-1.014.089-2.279.089-3.885.089h-.086c-1.606 0-2.87 0-3.885-.088-1.035-.09-1.895-.277-2.666-.701a6.4 6.4 0 0 1-2.517-2.517c-.424-.771-.611-1.631-.7-2.666C2.1 14.914 2.1 13.65 2.1 12.043v-.086c0-1.606 0-2.87.088-3.885.09-1.035.277-1.895.7-2.666a6.4 6.4 0 0 1 2.518-2.517c.771-.424 1.631-.611 2.666-.7C9.086 2.1 10.35 2.1 11.957 2.1m-3.73 1.881c-.916.08-1.494.232-1.954.485a4.6 4.6 0 0 0-1.807 1.807c-.253.46-.405 1.038-.485 1.955C3.901 9.155 3.9 10.34 3.9 12s0 2.845.081 3.773c.08.916.232 1.494.485 1.954a4.6 4.6 0 0 0 1.807 1.807c.46.253 1.038.405 1.955.485.927.08 2.113.081 3.772.081s2.845 0 3.773-.081c.916-.08 1.494-.232 1.954-.485a4.6 4.6 0 0 0 1.807-1.807c.253-.46.405-1.038.485-1.954.08-.928.081-2.114.081-3.773s0-2.845-.081-3.772c-.08-.917-.232-1.495-.485-1.955a4.6 4.6 0 0 0-1.807-1.807c-.46-.253-1.038-.405-1.954-.485-.928-.08-2.114-.081-3.773-.081s-2.845 0-3.772.081m.365 1.64h.07c.364 0 .694 0 .968.026.296.026.614.088.92.265.33.19.603.463.793.791.177.307.238.625.265.92.024.275.024.606.024.969v.07c0 .364 0 .694-.024.968-.027.296-.088.614-.265.92a2.16 2.16 0 0 1-.792.793c-.306.177-.625.238-.92.265-.275.024-.605.024-.968.024h-.071c-.363 0-.694 0-.968-.024-.296-.027-.614-.088-.92-.265a2.16 2.16 0 0 1-.792-.792 2.2 2.2 0 0 1-.265-.92c-.025-.275-.025-.605-.025-.968v-.071c0-.363 0-.694.025-.968a2.2 2.2 0 0 1 .265-.92c.19-.33.463-.603.791-.792.307-.177.625-.239.92-.265.275-.025.606-.025.969-.025m-.99 1.85a.36.36 0 0 0-.131.132.7.7 0 0 0-.032.183c-.016.184-.017.431-.017.841s0 .658.017.841a.7.7 0 0 0 .032.183q.048.083.132.133c.01.004.057.02.183.031.184.017.431.017.841.017s.658 0 .841-.017a.7.7 0 0 0 .183-.032.36.36 0 0 0 .133-.132.7.7 0 0 0 .031-.183c.017-.183.017-.43.017-.84 0-.411 0-.658-.017-.842a.7.7 0 0 0-.031-.183.36.36 0 0 0-.133-.132.7.7 0 0 0-.183-.032c-.183-.016-.43-.017-.84-.017-.411 0-.658 0-.842.017a.7.7 0 0 0-.183.032m7.735-1.85h.072c.362 0 .693 0 .967.026.296.026.614.088.92.265.33.19.603.463.793.791.176.307.238.625.264.92.025.275.025.606.025.969v.07c0 .364 0 .694-.025.968a2.2 2.2 0 0 1-.265.92c-.19.33-.463.603-.791.793-.307.177-.625.238-.92.265-.275.024-.606.024-.968.024h-.072c-.363 0-.693 0-.967-.024-.296-.027-.614-.088-.92-.265a2.17 2.17 0 0 1-.793-.792c-.177-.306-.238-.625-.265-.92-.024-.275-.024-.605-.024-.968v-.071c0-.363 0-.694.024-.968.027-.296.088-.614.265-.92.19-.33.463-.603.792-.792.306-.177.625-.239.92-.265.275-.025.605-.025.968-.025m-.989 1.85a.36.36 0 0 0-.132.132.7.7 0 0 0-.031.183c-.017.184-.018.431-.018.841s.001.658.018.841a.7.7 0 0 0 .031.183q.05.083.133.132c.01.005.057.02.183.032.183.017.43.017.84.017.411 0 .658 0 .842-.017a.7.7 0 0 0 .183-.032.36.36 0 0 0 .132-.132.7.7 0 0 0 .032-.183c.016-.183.017-.43.017-.84 0-.411 0-.658-.017-.842a.7.7 0 0 0-.032-.183.36.36 0 0 0-.132-.132.7.7 0 0 0-.183-.032 11 11 0 0 0-.841-.017c-.41 0-.658 0-.841.017a.7.7 0 0 0-.184.032M8.594 12.37h.07c.364 0 .694 0 .968.024.296.027.614.088.92.265.33.19.603.463.793.792.177.306.238.625.265.92.024.275.024.605.024.968v.072c0 .362 0 .693-.024.967-.027.296-.088.614-.265.92a2.15 2.15 0 0 1-.792.792 2.2 2.2 0 0 1-.92.265c-.275.025-.605.025-.968.025h-.071c-.363 0-.694 0-.968-.025a2.2 2.2 0 0 1-.92-.265 2.16 2.16 0 0 1-.792-.791 2.2 2.2 0 0 1-.265-.92c-.025-.275-.025-.606-.025-.968v-.072c0-.363 0-.693.025-.967a2.2 2.2 0 0 1 .265-.92c.19-.33.463-.603.791-.793.307-.177.625-.238.92-.265.275-.024.606-.024.969-.024m-.99 1.848a.36.36 0 0 0-.131.133.7.7 0 0 0-.032.183c-.016.183-.017.43-.017.84 0 .411 0 .658.017.842a.7.7 0 0 0 .032.183q.048.083.132.132c.01.005.057.02.183.032.184.016.431.017.841.017s.658 0 .841-.017a.7.7 0 0 0 .183-.032.36.36 0 0 0 .133-.132.7.7 0 0 0 .031-.183c.017-.184.017-.431.017-.841s0-.658-.017-.841a.7.7 0 0 0-.031-.183.36.36 0 0 0-.133-.133.7.7 0 0 0-.183-.031c-.183-.017-.43-.018-.84-.018-.411 0-.658.001-.842.018a.7.7 0 0 0-.183.031m7.735-1.848h.072c.362 0 .693 0 .967.024.296.027.614.088.92.265.33.19.603.463.793.792.176.306.238.625.264.92.025.275.025.605.025.968v.072c0 .362 0 .693-.025.967a2.2 2.2 0 0 1-.265.92c-.19.33-.463.603-.791.792a2.2 2.2 0 0 1-.92.265c-.275.025-.606.025-.968.025h-.072c-.363 0-.693 0-.967-.025a2.2 2.2 0 0 1-.92-.265 2.16 2.16 0 0 1-.793-.791c-.177-.307-.238-.625-.265-.92-.024-.275-.024-.606-.024-.968v-.072c0-.363 0-.693.024-.967.027-.296.088-.614.265-.92.19-.33.463-.603.792-.793.306-.177.625-.238.92-.265.275-.024.605-.024.968-.024m-.989 1.848a.36.36 0 0 0-.132.133.7.7 0 0 0-.031.183c-.017.183-.018.43-.018.84 0 .411.001.658.018.842a.7.7 0 0 0 .031.183q.05.083.133.132c.01.005.057.02.183.032.183.016.43.017.84.017.411 0 .658 0 .842-.017a.7.7 0 0 0 .183-.032.36.36 0 0 0 .132-.132.7.7 0 0 0 .032-.183c.016-.184.017-.431.017-.841s0-.658-.017-.841a.7.7 0 0 0-.032-.183.36.36 0 0 0-.132-.133.7.7 0 0 0-.183-.031c-.184-.017-.431-.018-.841-.018s-.658.001-.841.018a.7.7 0 0 0-.184.031" clip-rule="evenodd"/></svg>