<svg width="12" height="12" viewBox="0 0 12 12" fill="none" xmlns="http://www.w3.org/2000/svg">
<path fill-rule="evenodd" clip-rule="evenodd" d="M2.29289 2.29289C2.68342 1.90237 3.31658 1.90237 3.70711 2.29289L6 4.58579L8.29289 2.29289C8.68342 1.90237 9.31658 1.90237 9.70711 2.29289C10.0976 2.68342 10.0976 3.31658 9.70711 3.70711L7.41421 6L9.70711 8.29289C10.0976 8.68342 10.0976 9.31658 9.70711 9.70711C9.31658 10.0976 8.68342 10.0976 8.29289 9.70711L6 7.41421L3.70711 9.70711C3.31658 10.0976 2.68342 10.0976 2.29289 9.70711C1.90237 9.31658 1.90237 8.68342 2.29289 8.29289L4.58579 6L2.29289 3.70711C1.90237 3.31658 1.90237 2.68342 2.29289 2.29289Z" fill="#007AFF"/>
</svg>
