<svg width="32" height="32" viewBox="0 0 32 32" fill="none" xmlns="http://www.w3.org/2000/svg">
<path d="M2 11C2 10.0707 2 9.60603 2.07686 9.21964C2.39249 7.63288 3.63288 6.39249 5.21964 6.07686C5.60603 6 6.07069 6 7 6H25C25.9293 6 26.394 6 26.7804 6.07686C28.3671 6.39249 29.6075 7.63288 29.9231 9.21964C30 9.60603 30 10.0707 30 11H2Z" fill="#007AFF"/>
<path fill-rule="evenodd" clip-rule="evenodd" d="M30 14H2V19.6C2 21.8402 2 22.9603 2.43597 23.816C2.81947 24.5686 3.43139 25.1805 4.18404 25.564C5.03969 26 6.15979 26 8.4 26H23.6C25.8402 26 26.9603 26 27.816 25.564C28.5686 25.1805 29.1805 24.5686 29.564 23.816C30 22.9603 30 21.8402 30 19.6V14ZM7 18C6.44772 18 6 18.4477 6 19V21C6 21.5523 6.44772 22 7 22H10C10.5523 22 11 21.5523 11 21V19C11 18.4477 10.5523 18 10 18H7Z" fill="#007AFF"/>
</svg>
