<svg xmlns="http://www.w3.org/2000/svg" width="28" height="28" fill="none"><path fill="currentColor" fill-rule="evenodd" d="M22.795 5.832a1.91 1.91 0 0 0-1.858-.918c-.17.02-.465.134-1.037.54-.559.398-1.265.985-2.26 1.814l-1.161.967v8.284l1.377.97c.97.684 1.654 1.166 2.194 1.487.55.326.831.412 1.002.422a1.92 1.92 0 0 0 1.764-.963c.095-.163.187-.463.236-1.115.047-.643.048-1.498.048-2.706V9.979c0-1.316 0-2.252-.052-2.95-.053-.716-.153-1.034-.253-1.197M14.68 16.086V8.714H8.257c-.674 0-1.133 0-1.49.025-.348.025-.532.07-.662.125-.471.2-.853.589-1.054 1.088-.058.142-.102.34-.126.702a26 26 0 0 0-.025 1.538v1.546c0 .324 0 .43.008.51.085.992.844 1.746 1.76 1.83.075.007.173.008.49.008zm.574-9.172 1.266-1.055c.957-.797 1.716-1.43 2.338-1.871.614-.437 1.22-.783 1.863-.861a3.71 3.71 0 0 1 3.61 1.764c.337.55.456 1.24.513 2.004.057.773.057 1.776.057 3.045v4.712c0 1.161 0 2.084-.053 2.801-.054.716-.166 1.36-.479 1.893a3.72 3.72 0 0 1-3.423 1.849c-.619-.037-1.21-.312-1.815-.672-.607-.361-1.349-.884-2.279-1.54l-1.557-1.097H14.9v3.47c0 1.933-1.53 3.544-3.47 3.544a3.33 3.33 0 0 1-1.874-.57c-1.247-.846-2.153-1.615-2.681-2.799-.433-.968-.576-2.137-.609-3.69-1.704-.268-3-1.695-3.152-3.438-.014-.169-.014-.358-.014-.623v-1.619c0-.654 0-1.189.029-1.626.03-.451.094-.862.252-1.256A3.78 3.78 0 0 1 5.4 7.208c.391-.167.799-.233 1.242-.264.427-.03.95-.03 1.584-.03zM8.068 17.886c.036 1.438.17 2.283.45 2.912.315.704.86 1.237 2.049 2.043.248.169.549.259.863.259.898 0 1.67-.757 1.67-1.744v-3.47z" clip-rule="evenodd"/></svg>