<svg xmlns="http://www.w3.org/2000/svg" width="24" height="24" fill="none"><path fill="currentColor" fill-rule="evenodd" d="M19.839 4.696a1.63 1.63 0 0 0-1.584-.784c-.13.016-.38.106-.893.47-.5.356-1.131.881-2.028 1.628l-1.013.844v7.366l1.201.847c.874.616 1.487 1.047 1.97 1.334.49.292.73.36.86.367.6.036 1.182-.271 1.505-.822.075-.128.156-.38.2-.965.042-.574.043-1.34.043-2.429V8.381c0-1.186 0-2.024-.047-2.65-.047-.64-.136-.908-.214-1.035m-7.318 9.091V7.332h-5.69c-.608 0-1.017 0-1.334.023-.31.022-.463.06-.568.105a1.7 1.7 0 0 0-.9.93c-.046.116-.085.283-.107.605-.022.33-.022.754-.022 1.378v1.391c0 .294 0 .384.007.451.073.852.723 1.494 1.503 1.566.061.005.145.006.432.006zm.574-8.255 1.118-.93c.859-.716 1.544-1.287 2.106-1.686.555-.395 1.115-.718 1.718-.791a3.43 3.43 0 0 1 3.336 1.63c.316.515.424 1.153.475 1.844.052.7.052 1.605.052 2.743v4.248c0 1.042 0 1.876-.048 2.525-.049.647-.15 1.244-.443 1.742a3.44 3.44 0 0 1-3.164 1.708c-.579-.034-1.126-.292-1.674-.617-.55-.327-1.22-.799-2.054-1.387l-1.381-.974H12.9v3.033c0 1.788-1.415 3.28-3.213 3.28a3.1 3.1 0 0 1-1.737-.528c-1.126-.764-1.959-1.468-2.445-2.557-.39-.872-.521-1.917-.554-3.282-1.54-.276-2.7-1.58-2.838-3.163a7 7 0 0 1-.013-.565v-1.462c0-.587 0-1.071.026-1.467.028-.411.086-.791.234-1.158a3.5 3.5 0 0 1 1.864-1.914c.365-.155.743-.216 1.147-.245.387-.027.86-.027 1.429-.027zM6.754 15.587c.035 1.235.155 1.958.395 2.494.272.61.745 1.078 1.812 1.802.207.14.46.217.726.217.756 0 1.413-.638 1.413-1.48v-3.033z" clip-rule="evenodd"/></svg>