<svg xmlns="http://www.w3.org/2000/svg" fill="none" viewBox="0 0 24 24"><path fill="currentColor" fill-rule="evenodd" d="M11.752 2.062h.497A3.285 3.285 0 0 1 15.58 4.6h3.708a.9.9 0 1 1 0 1.8H4.714a.9.9 0 0 1 0-1.8h3.708a3.285 3.285 0 0 1 3.032-2.534c.084-.004.177-.004.298-.004M10.338 4.6h3.325a1.48 1.48 0 0 0-1.207-.736 6 6 0 0 0-.23-.002h-.451c-.154 0-.198 0-.23.002a1.48 1.48 0 0 0-1.207.736m-4.61 3.575a.9.9 0 0 1 1.001.787l.89 7.455c.122 1.023.205 1.706.332 2.213.121.482.256.688.407.822s.372.243.864.306c.519.066 1.206.068 2.237.068h1.083c1.03 0 1.719-.002 2.237-.068.492-.063.713-.172.864-.306.151-.135.286-.34.407-.822.127-.507.21-1.19.332-2.213l.89-7.455a.9.9 0 1 1 1.787.213l-.896 7.512c-.114.952-.209 1.75-.367 2.38-.168.67-.432 1.264-.958 1.73-.526.468-1.147.66-1.831.747-.646.082-1.45.082-2.407.082h-1.198c-.958 0-1.762 0-2.408-.082-.683-.088-1.305-.28-1.83-.746-.527-.467-.79-1.061-.958-1.73-.159-.631-.254-1.43-.368-2.38l-.896-7.513a.9.9 0 0 1 .787-1" clip-rule="evenodd"/></svg>