<svg xmlns="http://www.w3.org/2000/svg" width="24" height="24" fill="none"><path fill="currentColor" fill-rule="evenodd" d="M11.573 4.282c-4.578 0-8.101 3.273-8.101 7.094 0 1.709.691 3.288 1.867 4.528.297.313.518.764.49 1.284-.038.72-.182 1.794-.554 2.792 1.244-.347 2.41-.964 3.115-1.423.404-.263.896-.36 1.373-.265a9.2 9.2 0 0 0 1.81.178c4.577 0 8.1-3.274 8.1-7.094s-3.523-7.094-8.1-7.094m-9.901 7.094c0-5.01 4.536-8.894 9.9-8.894s9.901 3.885 9.901 8.894-4.536 8.894-9.9 8.894a11 11 0 0 1-2.163-.213.05.05 0 0 0-.038.008c-.973.634-2.758 1.568-4.635 1.877-.669.11-1.155-.297-1.37-.7a1.48 1.48 0 0 1-.006-1.38c.432-.815.622-1.938.668-2.724-1.46-1.54-2.357-3.551-2.357-5.762m5.21-1.396a.9.9 0 0 1 .9-.9h8.054a.9.9 0 0 1 0 1.8H7.783a.9.9 0 0 1-.9-.9m0 3.553a.9.9 0 0 1 .9-.9h6.159a.9.9 0 0 1 0 1.8H7.783a.9.9 0 0 1-.9-.9" clip-rule="evenodd"/></svg>