<svg xmlns="http://www.w3.org/2000/svg" fill="none" viewBox="0 0 28 28"><path fill="currentColor" fill-rule="evenodd" d="M18.918 3.394q.322-.036.644 0c.574.064 1.04.33 1.471.668.407.318.859.763 1.388 1.286l.073.072c.543.536 1.005.992 1.335 1.403.35.435.625.909.692 1.494q.037.327 0 .654c-.067.585-.343 1.059-.692 1.494-.33.412-.792.867-1.335 1.403L10.478 23.726l-.082.08c-.418.414-.774.766-1.226.978q-.128.06-.261.107c-.47.167-.97.166-1.56.166h-.233c-.737 0-1.366 0-1.874-.058-.538-.061-1.053-.196-1.504-.546a3 3 0 0 1-.514-.514c-.35-.451-.485-.966-.546-1.504-.058-.508-.058-1.137-.058-1.875v-.16c0-.575 0-1.064.158-1.525q.06-.173.142-.338c.216-.437.564-.78.974-1.183l.08-.079L16.058 5.348c.53-.523.98-.968 1.387-1.286.431-.338.898-.604 1.472-.668m.443 1.789a1 1 0 0 0-.242 0c-.108.012-.263.061-.563.296-.315.247-.693.618-1.27 1.186l-.695.686 3.959 3.907.643-.635c.59-.582.975-.964 1.232-1.284.245-.305.295-.462.308-.572q.015-.123 0-.246c-.013-.11-.063-.267-.308-.572-.257-.32-.642-.702-1.232-1.284-.576-.568-.954-.94-1.269-1.186-.3-.235-.455-.284-.563-.296m-.092 7.34L15.31 8.615l-10.072 9.94c-.532.524-.64.647-.705.778a1 1 0 0 0-.053.128c-.048.138-.06.301-.06 1.048 0 .802.002 1.327.047 1.722.042.377.115.52.18.605q.084.108.193.193c.085.065.228.138.605.18.395.045.92.047 1.722.047h.069c.764 0 .93-.012 1.072-.062q.05-.018.098-.04c.136-.065.263-.173.807-.71z" clip-rule="evenodd"/></svg>