<svg xmlns="http://www.w3.org/2000/svg" width="28" height="28" fill="none"><path fill="currentColor" fill-rule="evenodd" d="M14 9.335a2.34 2.34 0 0 0 2.334-2.333 2.34 2.34 0 0 0-2.333-2.333 2.34 2.34 0 0 0-2.334 2.333 2.34 2.34 0 0 0 2.334 2.333m0 2.334a2.34 2.34 0 0 0-2.333 2.333 2.34 2.34 0 0 0 2.334 2.333 2.34 2.34 0 0 0 2.333-2.333 2.34 2.34 0 0 0-2.333-2.333m-2.333 9.333a2.34 2.34 0 0 1 2.334-2.333 2.34 2.34 0 0 1 2.333 2.333 2.34 2.34 0 0 1-2.333 2.333 2.34 2.34 0 0 1-2.334-2.333" clip-rule="evenodd"/></svg>