<svg width="24" height="24" viewBox="0 0 24 24" fill="none" xmlns="http://www.w3.org/2000/svg">
<path fill-rule="evenodd" clip-rule="evenodd" d="M12.0006 8.00145C13.1007 8.00145 14.0007 7.10145 14.0007 6.00145C14.0007 4.90145 13.1007 4.00145 12.0006 4.00145C10.9005 4.00145 10.0005 4.90145 10.0005 6.00145C10.0005 7.10145 10.9005 8.00145 12.0006 8.00145ZM12.0006 10.0015C10.9005 10.0015 10.0005 10.9015 10.0005 12.0015C10.0005 13.1015 10.9005 14.0015 12.0006 14.0015C13.1007 14.0015 14.0007 13.1015 14.0007 12.0015C14.0007 10.9015 13.1007 10.0015 12.0006 10.0015ZM10.0005 18.0015C10.0005 16.9015 10.9005 16.0015 12.0006 16.0015C13.1007 16.0015 14.0007 16.9015 14.0007 18.0015C14.0007 19.1015 13.1007 20.0015 12.0006 20.0015C10.9005 20.0015 10.0005 19.1015 10.0005 18.0015Z" fill="#007AFF"/>
</svg>
