<svg xmlns="http://www.w3.org/2000/svg" fill="none" viewBox="0 0 28 28"><path fill="currentColor" fill-rule="evenodd" d="M12.361 2.6h1.865c.97 0 1.904.37 2.61 1.036l5.537 5.22a4.9 4.9 0 0 1 1.527 3.538v5.745c0 1.087 0 1.958-.057 2.662-.06.722-.184 1.348-.477 1.924a4.9 4.9 0 0 1-2.141 2.14c-.576.294-1.202.419-1.925.478-.703.057-1.574.057-2.661.057h-4.278c-1.087 0-1.958 0-2.661-.057-.723-.06-1.349-.184-1.925-.477a4.9 4.9 0 0 1-2.14-2.141c-.294-.576-.418-1.202-.478-1.925-.057-.703-.057-1.574-.057-2.661V9.861c0-1.087 0-1.958.057-2.661.06-.723.184-1.349.477-1.925a4.9 4.9 0 0 1 2.141-2.14c.576-.294 1.202-.418 1.925-.478.703-.057 1.574-.057 2.661-.057M9.846 4.452c-.611.05-.974.143-1.253.286a3.1 3.1 0 0 0-1.355 1.355c-.143.28-.237.642-.286 1.253C6.9 7.968 6.9 8.766 6.9 9.9v8.2c0 1.135 0 1.932.052 2.554.05.611.143.974.286 1.253a3.1 3.1 0 0 0 1.355 1.355c.28.143.642.236 1.253.287.622.05 1.419.051 2.554.051h4.2c1.135 0 1.932 0 2.554-.052.611-.05.974-.143 1.253-.286a3.1 3.1 0 0 0 1.355-1.355c.143-.28.236-.642.287-1.253.05-.622.051-1.419.051-2.554v-4.775h-4.71c-.53 0-.98 0-1.351-.03-.39-.032-.768-.102-1.13-.286a2.9 2.9 0 0 1-1.267-1.267c-.184-.362-.254-.74-.286-1.13-.03-.37-.03-.822-.03-1.352V4.4H12.4c-1.135 0-1.932 0-2.554.052m5.28.161v4.612c0 .575 0 .952.024 1.24.023.278.062.393.096.46a1.1 1.1 0 0 0 .48.48c.066.034.182.073.46.096.288.023.665.024 1.24.024h4.545a3.1 3.1 0 0 0-.837-1.363l-5.533-5.216a2 2 0 0 0-.475-.333" clip-rule="evenodd"/></svg>