<svg xmlns="http://www.w3.org/2000/svg" width="24" height="24" fill="none"><path fill="currentColor" fill-rule="evenodd" d="M12.259 3.597a.9.9 0 0 0 .008 1.273l5.04 4.973h-3.9c-1.923 0-3.446 0-4.651.143-1.237.147-2.256.457-3.105 1.16a5.7 5.7 0 0 0-.75.75c-.703.848-1.012 1.867-1.159 3.104-.143 1.205-.143 2.728-.143 4.65v.06a.9.9 0 1 0 1.8 0c0-1.995.001-3.411.13-4.497.127-1.066.366-1.695.759-2.17q.232-.28.511-.511c.474-.393 1.104-.632 2.17-.758 1.086-.13 2.502-.131 4.496-.131h3.841l-4.439 4.38a.9.9 0 1 0 1.264 1.282l6-5.921a.9.9 0 0 0 0-1.282l-6.6-6.513a.9.9 0 0 0-1.273.008" clip-rule="evenodd"/></svg>