<svg xmlns="http://www.w3.org/2000/svg" fill="none" viewBox="0 0 24 24"><path fill="currentColor" fill-rule="evenodd" d="M13.381 1.598h2.747c.905 0 1.639 0 2.234.048.613.05 1.156.154 1.662.406A4.3 4.3 0 0 1 21.95 3.98c.252.506.357 1.05.406 1.662.048.595.048 1.329.048 2.234v9.218a4.305 4.305 0 0 1-4.306 4.305h-7.176a3.82 3.82 0 0 1-3.819-3.819V7.875c0-.905 0-1.639.048-2.234.05-.613.154-1.156.406-1.662a4.3 4.3 0 0 1 1.927-1.927c.506-.252 1.05-.357 1.662-.406.595-.048 1.329-.048 2.234-.048M11.29 3.44c-.503.04-.788.116-1.001.222a2.5 2.5 0 0 0-1.122 1.122c-.106.213-.181.498-.222 1.002-.041.514-.042 1.175-.042 2.127v7.535l.233-.227q.071-.069.13-.123a2.603 2.603 0 0 1 3.475 0q.059.054.13.123l.01.01.087.084a.803.803 0 0 0 1.071 0c.01-.008.022-.02.087-.083l.886-.862c.307-.3.575-.56.813-.758.253-.21.53-.398.869-.509a2.6 2.6 0 0 1 1.62 0c.339.111.615.3.868.51.238.197.506.457.813.757l.609.591V7.913c0-.952 0-1.613-.042-2.127-.04-.504-.116-.789-.222-1.002a2.5 2.5 0 0 0-1.122-1.122c-.213-.106-.498-.181-1.002-.222-.514-.041-1.175-.042-2.127-.042H13.42c-.952 0-1.613 0-2.127.042m9.287 14.01-1.815-1.766a14 14 0 0 0-.731-.685c-.17-.14-.244-.173-.28-.184a.8.8 0 0 0-.5 0c-.035.011-.11.044-.278.184-.177.146-.394.356-.732.685l-.873.85q-.07.068-.13.122a2.603 2.603 0 0 1-3.603-.123l-.011-.01-.087-.084a.803.803 0 0 0-1.072 0l-.086.084-1.448 1.408a2.02 2.02 0 0 0 1.99 1.668H18.1a2.506 2.506 0 0 0 2.48-2.15M1.604 6.458a3.4 3.4 0 0 1 3.4-3.4.9.9 0 1 1 0 1.8 1.6 1.6 0 0 0-1.6 1.6v11.054a1.6 1.6 0 0 0 1.6 1.6.9.9 0 1 1 0 1.8 3.4 3.4 0 0 1-3.4-3.4z" clip-rule="evenodd"/><circle cx="17.005" cy="7.001" r="1.501" fill="currentColor"/></svg>