<svg xmlns="http://www.w3.org/2000/svg" fill="none" viewBox="0 0 28 28"><path fill="currentColor" fill-rule="evenodd" d="M13.788 4.5h.424c1.604 0 2.866 0 3.888.079 1.043.08 1.914.247 2.72.62a7.43 7.43 0 0 1 3.2 2.835c.46.746.722 1.579.917 2.593.191.995.33 2.235.508 3.815l.531 4.734c.06.527.009 1.06-.15 1.568-1.003 3.232-5.446 3.767-7.192.827l-1.624-2.734a.26.26 0 0 0-.218-.128h-5.584a.26.26 0 0 0-.218.128l-1.624 2.734c-1.746 2.94-6.189 2.405-7.193-.827a3.8 3.8 0 0 1-.15-1.568l.532-4.734c.177-1.58.316-2.82.508-3.815.195-1.014.457-1.847.917-2.593A7.43 7.43 0 0 1 7.18 5.2c.806-.373 1.677-.54 2.72-.62 1.022-.079 2.284-.079 3.888-.079m-3.73 1.994c-.922.07-1.524.207-2.023.438A5.47 5.47 0 0 0 5.68 9.021c-.29.471-.495 1.055-.67 1.958-.175.915-.307 2.082-.49 3.71l-.526 4.695c-.03.271-.004.545.077.806.51 1.644 2.712 1.88 3.578.422l1.623-2.733a2.25 2.25 0 0 1 1.936-1.092h5.584c.804 0 1.538.422 1.935 1.092l1.624 2.733c.866 1.458 3.067 1.222 3.578-.422.081-.26.108-.535.077-.806l-.527-4.695c-.182-1.628-.314-2.795-.49-3.71-.174-.903-.378-1.487-.67-1.958a5.47 5.47 0 0 0-2.354-2.089c-.5-.231-1.1-.367-2.022-.438-.935-.072-2.118-.073-3.773-.073h-.34c-1.655 0-2.838.001-3.773.073m-.104 2.814c.547 0 .99.43.99.96v.643h.628c.548 0 .991.43.991.96 0 .531-.443.961-.99.961h-.628v.642c0 .53-.444.96-.99.96-.548 0-.992-.43-.992-.96v-.642h-.627c-.548 0-.991-.43-.991-.96 0-.531.443-.961.99-.961h.628v-.642c0-.53.444-.96.991-.96" clip-rule="evenodd"/><path fill="currentColor" d="M19.395 9.677c0 .56-.469 1.014-1.046 1.014s-1.046-.454-1.046-1.014.468-1.014 1.046-1.014c.577 0 1.046.454 1.046 1.014m2.201 2.135c0 .56-.468 1.014-1.046 1.014-.577 0-1.045-.455-1.045-1.014 0-.56.468-1.014 1.046-1.014.577 0 1.045.454 1.045 1.014m-4.403 0c0 .56-.469 1.014-1.046 1.014S15.1 12.37 15.1 11.812c0-.56.468-1.014 1.046-1.014.577 0 1.046.454 1.046 1.014m2.203 2.134c0 .56-.469 1.014-1.046 1.014s-1.046-.454-1.046-1.014.468-1.014 1.046-1.014c.577 0 1.046.454 1.046 1.014"/></svg>