<svg xmlns="http://www.w3.org/2000/svg" fill="none" viewBox="0 0 28 28"><path fill="currentColor" fill-rule="evenodd" d="M13.127.978a5 5 0 0 1 1.677 0c.628.108 1.219.376 2.073.763l.113.051 4.99 2.26.112.05c.966.437 1.645.745 2.25 1.318.476.45.98 1.2 1.215 1.811.3.777.322 1.386.353 2.244l.002.072c.119 3.293-.368 7.261-2.034 10.611-1.685 3.389-4.593 6.158-9.223 6.87h-.008a4 4 0 0 1-.923.052 4 4 0 0 1-.44-.051l-.008-.001c-4.63-.712-7.537-3.481-9.222-6.87C2.388 16.808 1.9 12.84 2.019 9.547l.003-.072c.03-.858.052-1.467.352-2.244.236-.61.74-1.36 1.215-1.81.606-.574 1.284-.882 2.25-1.319l.112-.05 4.99-2.26.113-.05c.854-.388 1.445-.656 2.073-.764m1.342 1.95a3 3 0 0 0-1.007 0c-.346.06-.694.21-1.704.667l-4.99 2.26c-1.117.505-1.48.682-1.819 1.002-.262.248-.6.75-.73 1.087-.17.444-.19.74-.223 1.674-.11 3.086.356 6.698 1.83 9.66 1.453 2.923 3.87 5.197 7.75 5.794.146.022.181.028.269.033a2.2 2.2 0 0 0 .51-.033c3.88-.597 6.297-2.871 7.751-5.795 1.473-2.961 1.94-6.573 1.829-9.66-.034-.934-.052-1.229-.223-1.673a3.6 3.6 0 0 0-.73-1.087c-.338-.32-.701-.497-1.818-1.003l-4.99-2.26c-1.01-.457-1.358-.606-1.705-.666" clip-rule="evenodd"/><path fill="currentColor" fill-rule="evenodd" d="M12.77 11.62a.495.495 0 0 1-.471.34h-2.45a.495.495 0 0 0-.288.899l1.97 1.412c.176.126.25.352.182.558l-.755 2.293c-.15.456.37.837.759.558l1.995-1.43a.495.495 0 0 1 .578 0l1.995 1.43c.39.28.91-.102.76-.558l-.756-2.293a.495.495 0 0 1 .182-.558l1.97-1.412a.495.495 0 0 0-.288-.899h-2.45a.495.495 0 0 1-.47-.34l-.761-2.312a.495.495 0 0 0-.941 0zm4.007-1.638h1.376c2.404 0 3.396 3.084 1.441 4.485l-1.085.777.415 1.26c.749 2.273-1.846 4.179-3.791 2.784L14 18.477l-1.131.811c-1.945 1.395-4.54-.51-3.792-2.784l.415-1.26-1.085-.777c-1.954-1.402-.963-4.485 1.441-4.485h1.377l.425-1.293c.747-2.267 3.954-2.267 4.7 0z" clip-rule="evenodd"/></svg>