<svg xmlns="http://www.w3.org/2000/svg" fill="none" viewBox="0 0 24 24"><path fill="currentColor" fill-rule="evenodd" d="M11.272.763a4.3 4.3 0 0 1 1.458 0c.546.093 1.06.326 1.79.657l.1.045 4.288 1.942.1.045c.826.374 1.417.641 1.943 1.14a4.8 4.8 0 0 1 1.056 1.574c.261.676.28 1.206.306 1.942l.003.064c.102 2.835-.317 6.254-1.754 9.142-1.453 2.923-3.964 5.314-7.96 5.929l-.008.001a3.7 3.7 0 0 1-.804.044 4 4 0 0 1-.382-.044l-.007-.001c-3.997-.615-6.507-3.006-7.961-5.93-1.436-2.887-1.855-6.306-1.753-9.141l.002-.064c.026-.736.045-1.266.306-1.942a4.8 4.8 0 0 1 1.056-1.574c.527-.499 1.117-.766 1.944-1.14l.1-.045 4.287-1.942.1-.045c.73-.331 1.244-.564 1.79-.657m1.153 1.774a2.5 2.5 0 0 0-.848 0c-.29.05-.582.174-1.452.568L5.837 5.047c-.962.435-1.265.584-1.549.852a3.1 3.1 0 0 0-.614.916c-.144.372-.16.618-.189 1.421-.095 2.647.306 5.741 1.567 8.276 1.243 2.5 3.307 4.442 6.623 4.952.124.019.153.023.225.028.04.002.162.002.202 0 .073-.005.101-.009.226-.028 3.315-.51 5.38-2.452 6.623-4.952 1.26-2.535 1.66-5.629 1.566-8.276-.029-.803-.045-1.049-.189-1.421a3.1 3.1 0 0 0-.614-.916c-.283-.268-.587-.417-1.549-.852l-4.288-1.942c-.87-.394-1.162-.519-1.452-.568" clip-rule="evenodd"/><path fill="currentColor" fill-rule="evenodd" d="M10.942 9.984a.43.43 0 0 1-.404.293H8.434a.426.426 0 0 0-.248.771l1.692 1.214a.43.43 0 0 1 .157.479l-.65 1.97a.426.426 0 0 0 .653.48l1.715-1.23a.43.43 0 0 1 .496 0l1.714 1.23a.426.426 0 0 0 .653-.48l-.65-1.97a.43.43 0 0 1 .157-.48l1.693-1.213a.426.426 0 0 0-.248-.771h-2.105a.43.43 0 0 1-.404-.293l-.654-1.986a.426.426 0 0 0-.809 0zm3.516-1.507h1.11c2.163 0 3.055 2.774 1.297 4.034l-.873.626.333 1.012c.674 2.045-1.66 3.76-3.41 2.505L12 15.998l-.914.656c-1.75 1.254-4.084-.46-3.411-2.505l.333-1.012-.872-.626c-1.758-1.26-.867-4.034 1.297-4.034h1.11l.343-1.042c.671-2.04 3.556-2.04 4.228 0z" clip-rule="evenodd"/></svg>