<svg xmlns="http://www.w3.org/2000/svg" width="24" height="24" fill="none"><path fill="currentColor" fill-rule="evenodd" d="M17.803 6.038a4.44 4.44 0 0 0-6.238 0L9.95 7.632a.9.9 0 0 1-1.265-1.281l1.616-1.595a6.24 6.24 0 0 1 8.767 8.884l-1.515 1.495a.9.9 0 0 1-1.265-1.281l1.515-1.495a4.44 4.44 0 0 0 0-6.321M7.723 8.566a.9.9 0 0 1-.01 1.273L6.2 11.334a4.44 4.44 0 0 0 6.238 6.32l1.615-1.594a.9.9 0 1 1 1.265 1.282L13.7 18.936a6.24 6.24 0 1 1-8.767-8.884L6.45 8.557a.9.9 0 0 1 1.273.009m7.155.441a.9.9 0 0 1-.009 1.273l-4.472 4.413a.9.9 0 1 1-1.264-1.28l4.472-4.414a.9.9 0 0 1 1.273.008" clip-rule="evenodd"/></svg>