<svg xmlns="http://www.w3.org/2000/svg" fill="none" viewBox="0 0 28 28"><path fill="currentColor" fill-rule="evenodd" d="M13.995 4.845q-.256 0-.498.015c-2.132.124-3.396 1.044-4.15 2.106-.782 1.1-1.05 2.407-1.05 3.269v3.706c0 .876 0 1.518-.203 2.123a4 4 0 0 1-.144.364c-.263.582-.702 1.051-1.299 1.691l-.09.096c-.59.634-.973 1.046-1.2 1.362q-.071.098-.106.158.069.015.187.032c.387.048.95.05 1.816.05h13.473c.867 0 1.429-.002 1.816-.05q.119-.015.187-.032a2 2 0 0 0-.105-.158c-.228-.316-.61-.728-1.201-1.362l-.09-.096c-.597-.64-1.035-1.11-1.299-1.69a4 4 0 0 1-.143-.364c-.204-.606-.204-1.248-.203-2.123v-3.707c0-.862-.269-2.168-1.05-3.269-.755-1.062-2.018-1.982-4.15-2.106a9 9 0 0 0-.498-.015m8.863 14.853h.002zm-17.66.153v.002zm8.195-16.788a10 10 0 0 1 1.204 0c2.689.156 4.45 1.362 5.513 2.86 1.038 1.462 1.383 3.151 1.383 4.312v3.576c0 1.062.01 1.389.109 1.679q.033.099.076.195c.127.279.342.525 1.066 1.302l.042.045c.538.577 1 1.072 1.303 1.492.294.407.629.993.451 1.676-.05.19-.128.373-.234.54-.379.595-1.036.75-1.534.812-.513.065-1.191.065-1.98.065H7.197c-.788 0-1.466 0-1.98-.065-.498-.062-1.155-.217-1.533-.813a1.9 1.9 0 0 1-.235-.539c-.177-.683.158-1.27.452-1.676.303-.42.765-.915 1.303-1.492l.041-.045c.725-.777.94-1.023 1.066-1.302q.044-.096.077-.195c.098-.29.109-.617.109-1.68v-3.575c0-1.16.345-2.85 1.382-4.311 1.064-1.499 2.825-2.705 5.514-2.861" clip-rule="evenodd"/><path fill="currentColor" d="M13.995 26.14c1.09 0 2.019-.828 2.36-1.983.156-.525-.304-.98-.853-.98h-3.015c-.548 0-1.008.455-.853.98.342 1.155 1.27 1.983 2.36 1.983"/></svg>