<svg xmlns="http://www.w3.org/2000/svg" fill="none" viewBox="0 0 28 28"><path fill="currentColor" fill-rule="evenodd" d="M10.804 4.525c-1.876 0-3.423 1.548-3.423 3.49 0 1.94 1.547 3.489 3.423 3.489s3.423-1.548 3.423-3.49c0-1.94-1.547-3.489-3.423-3.489m-5.423 3.49c0-3.018 2.414-5.49 5.423-5.49s5.423 2.472 5.423 5.49c0 3.017-2.414 5.489-5.423 5.489s-5.423-2.472-5.423-5.49m11.377 9.463a4 4 0 0 0-.531 2.009c0 2.216 1.766 3.988 3.914 3.988.723 0 1.401-.2 1.984-.55zm-.804-2.22a6 6 0 0 0-1.727 4.229c0 3.293 2.634 5.988 5.914 5.988 1.638 0 3.12-.675 4.187-1.76a6 6 0 0 0 1.727-4.228c0-3.293-2.634-5.988-5.914-5.988-1.64 0-3.118.673-4.187 1.758m2.203.79 5.366 5.447a4 4 0 0 0 .532-2.008c0-2.217-1.767-3.988-3.914-3.988-.722 0-1.4.2-1.984.55m-14.486-.284a4.73 4.73 0 0 1 3.202-1.268h5.378a1 1 0 0 1 0 2H6.873a2.73 2.73 0 0 0-1.835.728c-.557.521-1.097 1.481-1.097 3.26a1 1 0 0 1-2 0c0-2.211.69-3.745 1.73-4.72" clip-rule="evenodd"/></svg>