<svg xmlns="http://www.w3.org/2000/svg" width="28" height="28" fill="none"><path fill="currentColor" fill-rule="evenodd" d="M17.619 5.947c-1.948 0-3.465 1.514-3.465 3.306s1.517 3.307 3.465 3.307 3.465-1.514 3.465-3.307-1.517-3.306-3.465-3.306m-5.444 3.306c0-2.952 2.471-5.285 5.444-5.285s5.444 2.333 5.444 5.285-2.472 5.286-5.444 5.286-5.444-2.333-5.444-5.286m-6.806-.989a.99.99 0 0 1 .989.99v2.232H8.71a.99.99 0 1 1 0 1.979H6.358v2.232a.99.99 0 1 1-1.979 0v-2.232H2.028a.99.99 0 0 1 0-1.979h2.351V9.253a.99.99 0 0 1 .99-.989m12.25 10.034c-5.761 0-7.238 3.227-7.368 4.483a.99.99 0 0 1-1.969-.204c.242-2.325 2.625-6.258 9.337-6.258s9.095 3.933 9.336 6.258a.99.99 0 0 1-1.968.204c-.13-1.256-1.607-4.483-7.368-4.483" clip-rule="evenodd"/></svg>