<svg xmlns="http://www.w3.org/2000/svg" fill="none" viewBox="0 0 28 28"><path fill="currentColor" fill-rule="evenodd" d="M17.46 3.324a3.7 3.7 0 0 1 2.065 0c.502.147.925.424 1.344.771.402.335.86.786 1.414 1.333l.056.055c.568.561 1.036 1.023 1.383 1.43.36.423.647.85.8 1.362a3.7 3.7 0 0 1 0 2.1c-.153.511-.44.939-.8 1.362-.347.407-.815.869-1.383 1.43l-1.257 1.24c-.33.326-.428.425-.504.528a1.9 1.9 0 0 0-.313.66c-.031.124-.047.262-.09.725l-.003.034c-.1 1.056-.178 1.894-.282 2.54-.104.638-.25 1.218-.557 1.68a3.68 3.68 0 0 1-4.087 1.488c-.532-.156-1.017-.507-1.507-.929-.495-.427-1.094-1.018-1.849-1.763l-1.148-1.133-4.534 4.475a.9.9 0 0 1-1.264-1.282l4.517-4.457-1.02-1.006c-.763-.754-1.368-1.351-1.806-1.845-.432-.487-.793-.97-.955-1.501a3.68 3.68 0 0 1 1.48-4.137c.464-.308 1.05-.452 1.692-.554.652-.104 1.499-.181 2.567-.279l.035-.003c.452-.041.586-.056.708-.086a1.9 1.9 0 0 0 .656-.304c.101-.074.199-.167.522-.487l1.362-1.343c.554-.547 1.01-.998 1.414-1.333.419-.347.84-.624 1.343-.771m1.56 1.727c-.345-.1-.71-.1-1.055 0-.169.05-.371.157-.699.429-.336.28-.738.675-1.328 1.257l-1.333 1.316-.042.04c-.264.262-.462.457-.687.62-.385.28-.821.483-1.284.597-.27.066-.546.092-.917.125l-.058.006c-1.11.101-1.898.173-2.483.266-.6.096-.856.195-.977.276a1.88 1.88 0 0 0-.756 2.111c.042.14.177.379.58.834.394.443.956.999 1.75 1.782l3.399 3.354c.785.775 1.342 1.323 1.785 1.706.455.393.695.523.835.564.787.23 1.63-.078 2.086-.76.08-.122.18-.375.277-.968.093-.579.167-1.357.27-2.455l.005-.059c.036-.379.062-.662.132-.937.117-.467.326-.906.613-1.293.169-.228.372-.428.642-.695l.043-.042 1.228-1.212c.604-.596 1.015-1.002 1.305-1.343.283-.333.394-.538.445-.71a1.87 1.87 0 0 0 0-1.07c-.05-.172-.162-.378-.445-.71-.29-.34-.701-.748-1.305-1.343-.59-.582-.991-.978-1.328-1.257-.327-.272-.53-.38-.699-.429" clip-rule="evenodd"/></svg>