<svg xmlns="http://www.w3.org/2000/svg" width="24" height="24" fill="none"><path fill="currentColor" fill-rule="evenodd" d="M14.964 2.733a3.3 3.3 0 0 1 1.845 0c.456.133.834.383 1.2.687.35.29.746.681 1.22 1.148l.054.054c.485.48.89.879 1.192 1.233.314.37.573.753.711 1.216a3.3 3.3 0 0 1 0 1.876c-.137.463-.396.846-.711 1.216-.302.354-.707.753-1.192 1.232L18.2 12.464c-.287.283-.361.36-.42.438q-.175.238-.247.523c-.024.095-.037.201-.075.603l-.003.034c-.084.903-.152 1.627-.243 2.185-.089.551-.217 1.073-.498 1.493a3.28 3.28 0 0 1-3.65 1.33c-.486-.142-.92-.459-1.342-.824-.428-.37-.946-.88-1.591-1.517l-.9-.888-3.805 3.755a.9.9 0 0 1-1.264-1.28l3.788-3.74-.787-.776c-.653-.644-1.176-1.16-1.555-1.587-.373-.42-.699-.852-.847-1.337A3.28 3.28 0 0 1 6.085 7.18c.421-.28.947-.407 1.503-.495.563-.09 1.294-.156 2.208-.24l.034-.003c.393-.036.497-.048.59-.07.187-.047.363-.128.518-.242.078-.056.154-.128.435-.405l1.172-1.157c.474-.467.87-.857 1.22-1.148.366-.304.744-.554 1.2-.687m1.34 1.727a1.5 1.5 0 0 0-.834 0c-.122.036-.28.116-.555.344-.284.236-.625.571-1.133 1.072l-1.145 1.13-.039.039c-.224.22-.4.395-.6.541-.345.25-.735.432-1.148.533-.241.06-.489.082-.802.11l-.054.006c-.955.087-1.627.149-2.124.228-.513.081-.71.164-.79.217a1.48 1.48 0 0 0-.597 1.67c.028.092.127.28.472.668.334.377.813.851 1.496 1.525l2.92 2.881c.675.667 1.15 1.134 1.527 1.46.388.334.576.43.67.458a1.48 1.48 0 0 0 1.65-.601c.053-.08.136-.276.217-.781.08-.492.143-1.155.231-2.1l.006-.056c.03-.32.053-.573.115-.819.105-.417.291-.81.548-1.156.151-.203.332-.382.561-.607l.04-.04 1.055-1.04c.52-.514.869-.859 1.114-1.147.237-.279.32-.44.357-.563a1.5 1.5 0 0 0 0-.847c-.037-.123-.12-.284-.357-.563-.245-.288-.594-.633-1.114-1.146-.508-.5-.849-.836-1.132-1.072-.275-.228-.434-.308-.555-.344" clip-rule="evenodd"/></svg>