<svg xmlns="http://www.w3.org/2000/svg" fill="none" viewBox="0 0 24 24"><path fill="currentColor" fill-rule="evenodd" d="M8.02 4.596h4.533c1.074 0 1.934 0 2.63.057.714.058 1.333.18 1.904.47a4.87 4.87 0 0 1 2.146 2.145c.289.57.41 1.19.469 1.904.056.696.056 1.556.056 2.63v.077c0 1.074 0 1.935-.056 2.63-.058.715-.18 1.334-.47 1.904a4.87 4.87 0 0 1-2.145 2.146c-.57.29-1.19.411-1.904.47-.696.056-1.556.056-2.63.056H8.02c-1.074 0-1.934 0-2.63-.057-.714-.058-1.333-.18-1.904-.469a4.87 4.87 0 0 1-2.146-2.146c-.289-.57-.41-1.19-.469-1.904-.056-.695-.056-1.556-.056-2.63v-.077c0-1.074 0-1.934.056-2.63.058-.714.18-1.333.47-1.904a4.87 4.87 0 0 1 2.145-2.146c.57-.289 1.19-.411 1.904-.469.696-.057 1.556-.057 2.63-.057M5.536 6.447c-.604.05-.96.141-1.237.28a3.07 3.07 0 0 0-1.353 1.354c-.14.276-.232.633-.28 1.237-.05.614-.051 1.401-.051 2.523 0 1.121 0 1.908.05 2.523.05.603.142.96.281 1.236.296.584.77 1.058 1.353 1.353.276.14.633.232 1.237.281.614.05 1.402.051 2.523.051h4.455c1.122 0 1.909 0 2.523-.05.604-.05.961-.142 1.237-.282a3.07 3.07 0 0 0 1.353-1.353c.14-.275.232-.633.28-1.236.05-.615.052-1.402.052-2.523s-.001-1.909-.051-2.523c-.05-.604-.141-.961-.281-1.237a3.07 3.07 0 0 0-1.353-1.353c-.276-.14-.633-.232-1.237-.28-.614-.05-1.401-.052-2.523-.052H8.06c-1.121 0-1.909.001-2.523.051" clip-rule="evenodd"/><path fill="currentColor" d="m7.64 11.899 2.647-3.675a.497.497 0 0 1 .9.29v1.772c0 .274.222.496.496.496h1.16c.426 0 .655.5.376.822l-3.226 3.731c-.352.407-1.01.042-.85-.471l.474-1.535a.497.497 0 0 0-.475-.644h-1.1a.497.497 0 0 1-.403-.787m14.171 1.678a1.97 1.97 0 0 0 1.047-1.736 1.97 1.97 0 0 0-1.047-1.735c-.483-.26-.954.206-.954.755v1.961c0 .549.471 1.014.954.755"/></svg>