<svg xmlns="http://www.w3.org/2000/svg" width="28" height="28" fill="none"><path fill="currentColor" fill-rule="evenodd" d="M8.139 3.068h.08c.744 0 1.36 0 1.862.045.522.046 1.007.147 1.455.403.515.293.945.717 1.244 1.228.262.447.365.93.412 1.448.046.496.046 1.106.046 1.838v.083c0 .732 0 1.342-.046 1.838-.047.519-.15 1.001-.412 1.448a3.4 3.4 0 0 1-1.244 1.229c-.448.255-.933.356-1.455.403-.502.044-1.118.044-1.861.044h-.081c-.743 0-1.36 0-1.861-.044-.523-.047-1.007-.148-1.455-.403a3.4 3.4 0 0 1-1.245-1.23c-.261-.446-.364-.928-.412-1.447-.045-.496-.045-1.106-.045-1.838V8.03c0-.732 0-1.342.045-1.838.048-.519.15-1.001.412-1.448.3-.511.73-.935 1.245-1.228.448-.256.932-.357 1.455-.403.501-.045 1.118-.045 1.86-.045m-1.7 1.837c-.4.036-.595.1-.725.175a1.6 1.6 0 0 0-.582.573c-.073.125-.137.312-.173.704-.037.404-.038.93-.038 1.715 0 .784 0 1.31.038 1.715.036.391.1.578.173.703.138.237.339.435.582.574.13.074.324.138.724.174.412.037.948.037 1.741.037s1.33 0 1.741-.037c.4-.036.594-.1.725-.174.243-.139.443-.337.582-.574.073-.125.137-.312.173-.703.037-.405.038-.931.038-1.715s-.001-1.311-.038-1.715c-.036-.392-.1-.579-.173-.704a1.6 1.6 0 0 0-.582-.573c-.13-.075-.325-.139-.725-.175-.411-.036-.947-.037-1.74-.037-.794 0-1.33 0-1.742.037m13.344-1.837h.08c.744 0 1.36 0 1.862.045.522.046 1.007.147 1.455.403a3.4 3.4 0 0 1 1.245 1.228c.26.447.364.93.412 1.448.045.496.045 1.106.045 1.838v.083c0 .732 0 1.342-.046 1.838-.047.519-.15 1.001-.411 1.448a3.4 3.4 0 0 1-1.245 1.229c-.448.255-.933.356-1.455.403-.501.044-1.118.044-1.861.044h-.081c-.743 0-1.36 0-1.861-.044-.523-.047-1.007-.148-1.455-.403a3.4 3.4 0 0 1-1.245-1.23c-.26-.446-.364-.928-.412-1.447-.045-.496-.045-1.106-.045-1.838V8.03c0-.732 0-1.342.045-1.838.048-.519.151-1.001.412-1.448.3-.511.73-.935 1.245-1.228.448-.256.933-.357 1.455-.403.501-.045 1.118-.045 1.86-.045m-1.7 1.837c-.4.036-.594.1-.725.175a1.6 1.6 0 0 0-.582.573c-.073.125-.137.312-.173.704-.037.404-.038.93-.038 1.715 0 .784 0 1.31.038 1.715.036.391.1.578.173.703.139.237.339.435.582.574.13.074.325.138.724.174.412.037.948.037 1.741.037s1.33 0 1.742-.037c.4-.036.593-.1.724-.174.243-.139.443-.337.582-.574.073-.125.137-.312.173-.703.037-.405.038-.931.038-1.715s0-1.311-.038-1.715c-.036-.392-.1-.579-.173-.704a1.6 1.6 0 0 0-.582-.573c-.13-.075-.325-.139-.724-.175-.412-.036-.948-.037-1.742-.037-.793 0-1.33 0-1.74.037M8.138 14.56h.08c.744 0 1.36 0 1.862.044.522.047 1.007.148 1.455.404.515.293.945.717 1.244 1.228.262.447.365.93.412 1.448.046.496.046 1.106.046 1.838v.083c0 .732 0 1.342-.046 1.838-.047.519-.15 1.001-.412 1.448a3.4 3.4 0 0 1-1.244 1.228c-.448.256-.933.357-1.455.404-.502.044-1.118.044-1.861.044h-.081c-.743 0-1.36 0-1.861-.044-.523-.047-1.007-.148-1.455-.404a3.4 3.4 0 0 1-1.245-1.228c-.261-.447-.364-.93-.412-1.448-.045-.496-.045-1.106-.045-1.838v-.083c0-.732 0-1.342.045-1.838.048-.519.15-1.001.412-1.448.3-.511.73-.935 1.245-1.228.448-.256.932-.357 1.455-.404.501-.044 1.118-.044 1.86-.044m-1.7 1.837c-.4.036-.595.1-.725.174a1.6 1.6 0 0 0-.582.574c-.073.125-.137.312-.173.703-.037.405-.038.932-.038 1.715 0 .784 0 1.311.038 1.715.036.392.1.579.173.704.138.237.339.435.582.573.13.075.324.139.724.175.412.037.948.037 1.741.037s1.33 0 1.741-.037c.4-.036.594-.1.725-.175.243-.138.443-.336.582-.573.073-.125.137-.312.173-.704.037-.404.038-.93.038-1.715 0-.783-.001-1.31-.038-1.715-.036-.391-.1-.578-.173-.703a1.6 1.6 0 0 0-.582-.573c-.13-.075-.325-.139-.725-.175-.411-.037-.947-.037-1.74-.037-.794 0-1.33 0-1.742.037" clip-rule="evenodd"/><path fill="currentColor" d="M17.194 15.78a1.19 1.19 0 0 1 1.198 1.182 1.19 1.19 0 0 1-1.198 1.181 1.19 1.19 0 0 1-1.198-1.181 1.19 1.19 0 0 1 1.198-1.182m2.795 2.757c.66 0 1.197.53 1.197 1.182a1.19 1.19 0 0 1-1.198 1.182 1.19 1.19 0 0 1-1.197-1.182 1.19 1.19 0 0 1 1.197-1.182m2.795-2.757a1.19 1.19 0 0 1 1.198 1.182 1.19 1.19 0 0 1-1.198 1.181 1.19 1.19 0 0 1-1.198-1.181 1.19 1.19 0 0 1 1.198-1.182m-5.589 5.515c.661 0 1.198.53 1.198 1.182a1.19 1.19 0 0 1-1.198 1.182 1.19 1.19 0 0 1-1.198-1.182 1.19 1.19 0 0 1 1.198-1.182m5.589 0c.662 0 1.198.53 1.198 1.182a1.19 1.19 0 0 1-1.198 1.182 1.19 1.19 0 0 1-1.198-1.182 1.19 1.19 0 0 1 1.198-1.182"/></svg>