<svg xmlns="http://www.w3.org/2000/svg" width="20" height="20" fill="none"><path fill="currentColor" d="M10.06 18.582a8.2 8.2 0 0 1-3.311-.673 8.7 8.7 0 0 1-2.74-1.85 8.8 8.8 0 0 1-1.85-2.74 8.2 8.2 0 0 1-.673-3.312q0-1.76.672-3.312a8.8 8.8 0 0 1 4.582-4.59 8.2 8.2 0 0 1 3.312-.673q1.769 0 3.32.672a8.8 8.8 0 0 1 2.74 1.86 8.7 8.7 0 0 1 1.86 2.73 8.2 8.2 0 0 1 .672 3.313 8.2 8.2 0 0 1-.673 3.312 8.76 8.76 0 0 1-4.598 4.59 8.2 8.2 0 0 1-3.312.672m0-1.694a6.8 6.8 0 0 0 2.682-.531 6.9 6.9 0 0 0 2.191-1.478 6.9 6.9 0 0 0 1.478-2.191 6.8 6.8 0 0 0 .53-2.681q0-1.428-.53-2.673a6.87 6.87 0 0 0-3.678-3.677 6.8 6.8 0 0 0-2.68-.532q-1.429 0-2.682.532a6.8 6.8 0 0 0-2.183 1.477 6.9 6.9 0 0 0-1.47 2.2 6.7 6.7 0 0 0-.53 2.673q0 1.435.53 2.681.533 1.245 1.47 2.191a6.8 6.8 0 0 0 4.873 2.009m-.182-5.23q-.789 0-.789-.705v-.091q0-.573.283-.93.29-.357.738-.664.531-.364.789-.622a.86.86 0 0 0 .266-.648.86.86 0 0 0-.316-.689q-.307-.274-.813-.274-.249 0-.465.083a1.4 1.4 0 0 0-.39.24q-.175.15-.316.374l-.133.175a.9.9 0 0 1-.282.249.75.75 0 0 1-.382.091.67.67 0 0 1-.456-.174.6.6 0 0 1-.2-.473q0-.117.017-.216.025-.108.067-.216.19-.58.88-1.004.697-.424 1.768-.424.73 0 1.344.258.622.256.996.738.374.481.374 1.17 0 .731-.374 1.155a4.8 4.8 0 0 1-.97.83 3 3 0 0 0-.632.506.9.9 0 0 0-.232.564v.05a.2.2 0 0 1-.008.05.6.6 0 0 1-.224.423q-.2.175-.54.175m-.017 2.549q-.398 0-.689-.257a.87.87 0 0 1-.282-.656q0-.39.282-.648a.97.97 0 0 1 .69-.265q.405 0 .688.257.282.258.282.656a.85.85 0 0 1-.282.656 1 1 0 0 1-.689.257"/></svg>