<svg xmlns="http://www.w3.org/2000/svg" width="28" height="28" fill="none"><path fill="currentColor" fill-rule="evenodd" d="M13.591 4.309a.9.9 0 0 1-.008 1.272l-6.137 6.056h4.904c2.25 0 4.02 0 5.415.166 1.429.17 2.584.525 3.543 1.32q.468.386.855.854c.794.959 1.15 2.114 1.32 3.543.165 1.396.165 3.166.165 5.415v.06a.9.9 0 1 1-1.8 0c0-2.323-.001-3.985-.153-5.262-.15-1.258-.434-2.024-.918-2.608a4.7 4.7 0 0 0-.617-.617c-.584-.483-1.35-.768-2.607-.917-1.278-.152-2.94-.154-5.263-.154H7.446l5.437 5.366a.9.9 0 0 1-1.264 1.28L4.62 13.179a.9.9 0 0 1 0-1.281L12.319 4.3a.9.9 0 0 1 1.272.009" clip-rule="evenodd"/></svg>