<svg width="24" height="24" viewBox="0 0 24 24" fill="none" xmlns="http://www.w3.org/2000/svg">
<path fill-rule="evenodd" clip-rule="evenodd" d="M9.11414 3.89998C5.68183 3.89998 2.90001 6.6812 2.90001 10.1112C2.90001 13.5413 5.68183 16.3225 9.11414 16.3225C10.8312 16.3225 12.3842 15.6276 13.5098 14.5017C14.6344 13.3768 15.3283 11.8258 15.3283 10.1112C15.3283 6.6812 12.5465 3.89998 9.11414 3.89998ZM1.10001 10.1112C1.10001 5.6864 4.6884 2.09998 9.11414 2.09998C13.5399 2.09998 17.1283 5.6864 17.1283 10.1112C17.1283 11.9983 16.4747 13.734 15.3829 15.1027L20.6368 20.364C20.9881 20.7157 20.9877 21.2856 20.636 21.6368C20.2842 21.988 19.7144 21.9876 19.3632 21.6359L14.1102 16.3756C12.7405 17.4684 11.0031 18.1225 9.11414 18.1225C4.6884 18.1225 1.10001 14.5361 1.10001 10.1112Z" fill="#007AFF"/>
</svg>
