<svg xmlns="http://www.w3.org/2000/svg" fill="none" viewBox="0 0 40 40"><path fill="currentColor" d="M16.228 9.993c1.166-3.164 1.75-4.746 2.598-5.199a2.49 2.49 0 0 1 2.348 0c.849.453 1.432 2.035 2.598 5.199l.562 1.525c.337.914.506 1.372.796 1.715.257.303.58.54.945.694.413.173.895.194 1.86.235l1.608.07c3.338.143 5.006.215 5.694.89a2.56 2.56 0 0 1 .726 2.258c-.164.955-1.472 2.005-4.088 4.104l-1.262 1.011c-.756.607-1.134.91-1.367 1.296a2.55 2.55 0 0 0-.361 1.123c-.036.45.094.92.353 1.86l.432 1.568c.896 3.253 1.345 4.88.921 5.75a2.52 2.52 0 0 1-1.9 1.395c-.949.137-2.34-.796-5.124-2.663l-1.341-.9c-.805-.54-1.207-.809-1.642-.914a2.5 2.5 0 0 0-1.168 0c-.435.105-.837.375-1.642.914l-1.341.9c-2.783 1.867-4.175 2.8-5.124 2.663a2.52 2.52 0 0 1-1.9-1.396c-.424-.87.025-2.496.921-5.749l.432-1.568c.26-.94.389-1.41.353-1.86a2.56 2.56 0 0 0-.361-1.123c-.233-.386-.611-.689-1.367-1.296l-1.262-1.011c-2.616-2.1-3.924-3.149-4.088-4.104a2.56 2.56 0 0 1 .726-2.258c.688-.675 2.356-.747 5.694-.89l1.608-.07c.965-.041 1.447-.062 1.86-.235.364-.153.688-.391.945-.694.29-.343.459-.8.796-1.715z"/></svg>