<svg width="24" height="24" viewBox="0 0 24 24" fill="none" xmlns="http://www.w3.org/2000/svg">
<path fill-rule="evenodd" clip-rule="evenodd" d="M12 15.45C13.9054 15.45 15.45 13.9054 15.45 12C15.45 10.0946 13.9054 8.55 12 8.55C10.0946 8.55 8.55 10.0946 8.55 12C8.55 13.9054 10.0946 15.45 12 15.45ZM12 17.25C14.8995 17.25 17.25 14.8995 17.25 12C17.25 9.1005 14.8995 6.75 12 6.75C9.1005 6.75 6.75 9.1005 6.75 12C6.75 14.8995 9.1005 17.25 12 17.25Z" fill="#007AFF"/>
<path d="M19.5 5.5C19.5 6.05228 19.0523 6.5 18.5 6.5C17.9477 6.5 17.5 6.05228 17.5 5.5C17.5 4.94772 17.9477 4.5 18.5 4.5C19.0523 4.5 19.5 4.94772 19.5 5.5Z" fill="#007AFF"/>
<path d="M6.5 5.5C6.5 6.05228 6.05228 6.5 5.5 6.5C4.94772 6.5 4.5 6.05228 4.5 5.5C4.5 4.94772 4.94772 4.5 5.5 4.5C6.05228 4.5 6.5 4.94772 6.5 5.5Z" fill="#007AFF"/>
<path d="M21.5 12C21.5 12.5523 21.0523 13 20.5 13C19.9477 13 19.5 12.5523 19.5 12C19.5 11.4477 19.9477 11 20.5 11C21.0523 11 21.5 11.4477 21.5 12Z" fill="#007AFF"/>
<path d="M4.5 12C4.5 12.5523 4.05228 13 3.5 13C2.94772 13 2.5 12.5523 2.5 12C2.5 11.4477 2.94772 11 3.5 11C4.05228 11 4.5 11.4477 4.5 12Z" fill="#007AFF"/>
<path d="M19.5 18.5C19.5 19.0523 19.0523 19.5 18.5 19.5C17.9477 19.5 17.5 19.0523 17.5 18.5C17.5 17.9477 17.9477 17.5 18.5 17.5C19.0523 17.5 19.5 17.9477 19.5 18.5Z" fill="#007AFF"/>
<path d="M13 20.5C13 21.0523 12.5523 21.5 12 21.5C11.4477 21.5 11 21.0523 11 20.5C11 19.9477 11.4477 19.5 12 19.5C12.5523 19.5 13 19.9477 13 20.5Z" fill="#007AFF"/>
<path d="M6.5 18.5C6.5 19.0523 6.05228 19.5 5.5 19.5C4.94772 19.5 4.5 19.0523 4.5 18.5C4.5 17.9477 4.94772 17.5 5.5 17.5C6.05228 17.5 6.5 17.9477 6.5 18.5Z" fill="#007AFF"/>
<path d="M13 3.5C13 4.05228 12.5523 4.5 12 4.5C11.4477 4.5 11 4.05228 11 3.5C11 2.94772 11.4477 2.5 12 2.5C12.5523 2.5 13 2.94772 13 3.5Z" fill="#007AFF"/>
</svg>
