<svg xmlns="http://www.w3.org/2000/svg" fill="none" viewBox="0 0 28 28"><path fill="currentColor" fill-rule="evenodd" d="M14.189 2.495c.522-1.452 2.476-2.018 3.658-.877l3.865 3.73c.724.699.985 1.745.656 2.7l-.407 1.177c-.011.033-.007.046-.005.052a.13.13 0 0 0 .043.059.2.2 0 0 0 .094.043.2.2 0 0 0 .112-.021 2.17 2.17 0 0 1 2.447.387l-.687.712.687-.712.428.413a2.865 2.865 0 0 1 0 4.143l-6.526 6.298a2.07 2.07 0 0 1-.549 2.09l-1.211 1.169a2.747 2.747 0 0 1-3.798 0l-.704-.68c-.335-.323-1.069-.298-1.456.235-.803 1.104-1.892 2.267-3.175 2.842-.66.295-1.399.447-2.177.322-.783-.126-1.517-.517-2.183-1.16s-1.081-1.36-1.216-2.139c-.133-.777.03-1.51.341-2.157.601-1.25 1.81-2.302 2.948-3.072.558-.378.543-1.023.247-1.31l-.704-.679a2.603 2.603 0 0 1 0-3.763l1.211-1.17a2.16 2.16 0 0 1 2.138-.503l2.71-2.615c1.449-1.398 2.548-3.67 3.212-5.514M9.856 11.84l7.462 7.202 6.388-6.165a.886.886 0 0 0 0-1.295l-.428-.413a.2.2 0 0 0-.213-.03c-1.618.781-3.62-.692-2.974-2.56l.406-1.177a.6.6 0 0 0-.159-.63l-3.865-3.73c-.036-.035-.106-.068-.219-.04-.117.03-.182.103-.204.163-.695 1.93-1.92 4.549-3.7 6.267zm-2.233.666a.17.17 0 0 0-.12.045l-1.212 1.17a.625.625 0 0 0 0 .916l.704.68c1.38 1.33.87 3.435-.511 4.37-1.05.71-1.904 1.521-2.275 2.291-.175.365-.223.68-.174.964.049.282.21.637.64 1.051.427.413.805.58 1.122.63.32.052.669 0 1.056-.174.81-.363 1.65-1.193 2.382-2.199.974-1.34 3.09-1.79 4.43-.496l.705.68a.77.77 0 0 0 1.05 0l1.211-1.17c.026-.025.033-.048.033-.067s-.007-.043-.033-.069l-8.887-8.577a.17.17 0 0 0-.12-.045" clip-rule="evenodd"/></svg>