<svg xmlns="http://www.w3.org/2000/svg" width="24" height="24" fill="none"><path fill="currentColor" fill-rule="evenodd" d="M12.114 2.098c.46-1.28 2.182-1.78 3.225-.772L18.66 4.53c.635.613.865 1.532.575 2.371l-.349 1.012-.004.014a.1.1 0 0 0 .022.026.1.1 0 0 0 .056.026.1.1 0 0 0 .067-.014 1.92 1.92 0 0 1 2.159.342l-.625.648.625-.648.367.355a2.51 2.51 0 0 1 0 3.631l-5.585 5.39a1.82 1.82 0 0 1-.493 1.817l-1.041 1.005a2.41 2.41 0 0 1-3.333 0l-.605-.584c-.262-.253-.857-.242-1.176.195-.69.951-1.633 1.96-2.747 2.458-.573.257-1.219.39-1.9.28-.684-.11-1.323-.45-1.902-1.01-.577-.557-.941-1.183-1.058-1.865-.118-.68.026-1.32.296-1.883.522-1.086 1.571-1.996 2.55-2.66a.83.83 0 0 0 .36-.557.54.54 0 0 0-.154-.49l-.605-.584a2.286 2.286 0 0 1 0-3.305L5.2 9.496a1.9 1.9 0 0 1 1.858-.453l2.308-2.227c1.236-1.193 2.178-3.136 2.748-4.718M8.51 10.144l6.34 6.118L20.303 11a.71.71 0 0 0 0-1.04l-.367-.355a.1.1 0 0 0-.056-.026.12.12 0 0 0-.071.01c-1.425.687-3.195-.61-2.624-2.262l.35-1.011a.46.46 0 0 0-.125-.49l-3.321-3.204c-.017-.016-.059-.042-.141-.021-.087.022-.128.073-.14.108-.599 1.66-1.654 3.919-3.192 5.403zm-1.99.622a.1.1 0 0 0-.07.025l-1.04 1.005a.487.487 0 0 0 0 .715l.605.584c1.213 1.17.762 3.015-.446 3.833-.9.609-1.625 1.299-1.937 1.949-.147.306-.186.566-.146.798.04.23.173.526.535.875.362.35.677.487.938.528.264.043.553 0 .878-.146.685-.306 1.4-1.01 2.027-1.873.852-1.171 2.704-1.57 3.882-.432l.605.584a.61.61 0 0 0 .833 0l1.04-1.005.012-.015.001-.008-.001-.008-.011-.014-7.636-7.37a.1.1 0 0 0-.069-.025" clip-rule="evenodd"/></svg>