<svg width="28" height="28" viewBox="0 0 28 28" fill="none" xmlns="http://www.w3.org/2000/svg">
<path fill-rule="evenodd" clip-rule="evenodd" d="M14 23.2C19.081 23.2 23.2 19.081 23.2 14C23.2 8.91898 19.081 4.8 14 4.8C8.91898 4.8 4.8 8.91898 4.8 14C4.8 19.081 8.91898 23.2 14 23.2ZM14 25C20.0751 25 25 20.0751 25 14C25 7.92487 20.0751 3 14 3C7.92487 3 3 7.92487 3 14C3 20.0751 7.92487 25 14 25Z" fill="#007AFF"/>
<path fill-rule="evenodd" clip-rule="evenodd" d="M14 8.1C14.4971 8.1 14.9 8.50294 14.9 9V14.5C14.9 14.9971 14.4971 15.4 14 15.4C13.5029 15.4 13.1 14.9971 13.1 14.5V9C13.1 8.50294 13.5029 8.1 14 8.1Z" fill="#007AFF"/>
<path d="M15.25 18.75C15.25 19.4404 14.6904 20 14 20C13.3096 20 12.75 19.4404 12.75 18.75C12.75 18.0596 13.3096 17.5 14 17.5C14.6904 17.5 15.25 18.0596 15.25 18.75Z" fill="#007AFF"/>
</svg>
