<svg xmlns="http://www.w3.org/2000/svg" width="32" height="32" fill="none"><rect width="32" height="32" fill="url(#a)" rx="16"/><path fill="#fff" d="M7.62 18.441c.471.36 1.184.77 2.138 1.322l2.26 1.304c1.882 1.087 2.824 1.631 3.994 1.631 1.17 0 2.111-.544 3.994-1.63l2.26-1.305c.954-.551 1.666-.962 2.137-1.322.458.35.687.651.687.984 0 .676-.941 1.22-2.824 2.306l-2.26 1.305c-1.883 1.087-2.824 1.63-3.994 1.63-1.17 0-2.112-.543-3.995-1.63l-2.26-1.305c-1.882-1.087-2.824-1.63-2.824-2.306 0-.333.23-.634.688-.984Z"/><path fill="#fff" d="M7.62 15.016c.471.36 1.184.77 2.138 1.321l2.26 1.305c1.882 1.087 2.824 1.63 3.994 1.63 1.17 0 2.111-.543 3.994-1.63l2.26-1.305c.954-.55 1.666-.962 2.137-1.321.458.35.687.651.687.984 0 .676-.941 1.22-2.824 2.306l-2.26 1.305c-1.883 1.087-2.824 1.63-3.994 1.63-1.17 0-2.112-.543-3.995-1.63l-2.26-1.305C7.876 17.22 6.934 16.676 6.934 16c0-.333.23-.634.688-.984Z"/><path fill="#fff" d="M9.758 14.881c-1.883-1.087-2.825-1.63-2.825-2.306 0-.675.942-1.219 2.825-2.306l2.26-1.305c1.882-1.087 2.824-1.63 3.994-1.63 1.17 0 2.111.543 3.994 1.63l2.26 1.305c1.883 1.087 2.824 1.63 2.824 2.306 0 .675-.941 1.219-2.824 2.306l-2.26 1.305c-1.883 1.087-2.824 1.63-3.994 1.63-1.17 0-2.112-.543-3.995-1.63l-2.26-1.305Z"/><defs><linearGradient id="a" x1="16" x2="16" y1="0" y2="32" gradientUnits="userSpaceOnUse"><stop stop-color="#7688FF"/><stop offset="1" stop-color="#5A6EF5"/></linearGradient></defs></svg>